<svg width="115" height="32" viewBox="0 0 115 32" fill="none" xmlns="http://www.w3.org/2000/svg">
<path d="M5.33398 0H25.334C27.5393 0 29.334 1.79467 29.334 4V28C29.334 30.2053 27.5393 32 25.334 32H2.66732V2.66667C2.66732 1.196 3.86332 0 5.33398 0ZM5.33398 24H21.334V2.66667H16.0007V14.6667L12.6673 11.3333L9.33398 14.6667V2.66667H5.33398V24ZM25.334 2.66667H24.0007V24H25.334C25.802 24 26.25 24.0813 26.6673 24.2293V4C26.6673 3.26533 26.0687 2.66667 25.334 2.66667ZM25.334 29.3333C26.0687 29.3333 26.6673 28.7347 26.6673 28C26.6673 27.2653 26.0687 26.6667 25.334 26.6667H5.33398V29.3333H25.334Z" fill="white"/>
<path d="M41.5625 10.5781H44.7969C46.224 10.5781 47.2969 10.7917 48.0156 11.2188C48.7344 11.6458 49.0938 12.3724 49.0938 13.3984C49.0938 13.8411 49.0078 14.2396 48.8359 14.5938C48.6693 14.9427 48.4245 15.2318 48.1016 15.4609C47.7786 15.6901 47.3802 15.849 46.9062 15.9375V16.0156C47.4062 16.0938 47.849 16.237 48.2344 16.4453C48.6198 16.6536 48.9219 16.9453 49.1406 17.3203C49.3594 17.6953 49.4688 18.1719 49.4688 18.75C49.4688 19.4531 49.3047 20.0469 48.9766 20.5312C48.6536 21.0156 48.1953 21.3828 47.6016 21.6328C47.0078 21.8776 46.3047 22 45.4922 22H41.5625V10.5781ZM42.8906 15.4766H45.0781C46.0729 15.4766 46.7604 15.3125 47.1406 14.9844C47.526 14.6562 47.7188 14.1771 47.7188 13.5469C47.7188 12.8958 47.4896 12.4271 47.0312 12.1406C46.5781 11.8542 45.8542 11.7109 44.8594 11.7109H42.8906V15.4766ZM42.8906 16.5938V20.8672H45.2656C46.2812 20.8672 47 20.6693 47.4219 20.2734C47.8438 19.8724 48.0547 19.3333 48.0547 18.6562C48.0547 18.224 47.9583 17.8542 47.7656 17.5469C47.5781 17.2396 47.2708 17.0052 46.8438 16.8438C46.4219 16.6771 45.8568 16.5938 45.1484 16.5938H42.8906ZM59.0938 17.7031C59.0938 18.4062 59.0026 19.0339 58.8203 19.5859C58.638 20.138 58.375 20.6042 58.0312 20.9844C57.6875 21.3646 57.2708 21.6562 56.7812 21.8594C56.2969 22.0573 55.7474 22.1562 55.1328 22.1562C54.5599 22.1562 54.0339 22.0573 53.5547 21.8594C53.0807 21.6562 52.6693 21.3646 52.3203 20.9844C51.9766 20.6042 51.7083 20.138 51.5156 19.5859C51.3281 19.0339 51.2344 18.4062 51.2344 17.7031C51.2344 16.7656 51.3932 15.9688 51.7109 15.3125C52.0286 14.651 52.4818 14.1484 53.0703 13.8047C53.6641 13.4557 54.3698 13.2812 55.1875 13.2812C55.9688 13.2812 56.651 13.4557 57.2344 13.8047C57.8229 14.1536 58.2786 14.6589 58.6016 15.3203C58.9297 15.9766 59.0938 16.7708 59.0938 17.7031ZM52.5781 17.7031C52.5781 18.3906 52.6693 18.987 52.8516 19.4922C53.0339 19.9974 53.3151 20.388 53.6953 20.6641C54.0755 20.9401 54.5651 21.0781 55.1641 21.0781C55.7578 21.0781 56.2448 20.9401 56.625 20.6641C57.0104 20.388 57.2943 19.9974 57.4766 19.4922C57.6589 18.987 57.75 18.3906 57.75 17.7031C57.75 17.0208 57.6589 16.4323 57.4766 15.9375C57.2943 15.4375 57.013 15.0521 56.6328 14.7812C56.2526 14.5104 55.7604 14.375 55.1562 14.375C54.2656 14.375 53.612 14.6693 53.1953 15.2578C52.7839 15.8464 52.5781 16.6615 52.5781 17.7031ZM68.7188 17.7031C68.7188 18.4062 68.6276 19.0339 68.4453 19.5859C68.263 20.138 68 20.6042 67.6562 20.9844C67.3125 21.3646 66.8958 21.6562 66.4062 21.8594C65.9219 22.0573 65.3724 22.1562 64.7578 22.1562C64.1849 22.1562 63.6589 22.0573 63.1797 21.8594C62.7057 21.6562 62.2943 21.3646 61.9453 20.9844C61.6016 20.6042 61.3333 20.138 61.1406 19.5859C60.9531 19.0339 60.8594 18.4062 60.8594 17.7031C60.8594 16.7656 61.0182 15.9688 61.3359 15.3125C61.6536 14.651 62.1068 14.1484 62.6953 13.8047C63.2891 13.4557 63.9948 13.2812 64.8125 13.2812C65.5938 13.2812 66.276 13.4557 66.8594 13.8047C67.4479 14.1536 67.9036 14.6589 68.2266 15.3203C68.5547 15.9766 68.7188 16.7708 68.7188 17.7031ZM62.2031 17.7031C62.2031 18.3906 62.2943 18.987 62.4766 19.4922C62.6589 19.9974 62.9401 20.388 63.3203 20.6641C63.7005 20.9401 64.1901 21.0781 64.7891 21.0781C65.3828 21.0781 65.8698 20.9401 66.25 20.6641C66.6354 20.388 66.9193 19.9974 67.1016 19.4922C67.2839 18.987 67.375 18.3906 67.375 17.7031C67.375 17.0208 67.2839 16.4323 67.1016 15.9375C66.9193 15.4375 66.638 15.0521 66.2578 14.7812C65.8776 14.5104 65.3854 14.375 64.7812 14.375C63.8906 14.375 63.237 14.6693 62.8203 15.2578C62.4089 15.8464 62.2031 16.6615 62.2031 17.7031ZM72.25 9.84375V16.1562C72.25 16.3646 72.2422 16.6198 72.2266 16.9219C72.2109 17.2188 72.1979 17.4818 72.1875 17.7109H72.2422C72.3516 17.5755 72.5104 17.375 72.7188 17.1094C72.9323 16.8438 73.112 16.6302 73.2578 16.4688L76.1016 13.4375H77.625L74.1797 17.0938L77.875 22H76.3125L73.2891 17.9453L72.25 18.8984V22H70.9609V9.84375H72.25ZM84.9062 19.6562C84.9062 20.2031 84.7682 20.6641 84.4922 21.0391C84.2214 21.4089 83.8307 21.6875 83.3203 21.875C82.8151 22.0625 82.2109 22.1562 81.5078 22.1562C80.9089 22.1562 80.3906 22.1094 79.9531 22.0156C79.5156 21.9219 79.1328 21.7891 78.8047 21.6172V20.4219C79.1536 20.5938 79.5703 20.75 80.0547 20.8906C80.5391 21.0312 81.0339 21.1016 81.5391 21.1016C82.2786 21.1016 82.8151 20.9818 83.1484 20.7422C83.4818 20.5026 83.6484 20.1771 83.6484 19.7656C83.6484 19.5312 83.5807 19.3255 83.4453 19.1484C83.3151 18.9661 83.0938 18.7917 82.7812 18.625C82.4688 18.4531 82.0365 18.2656 81.4844 18.0625C80.9375 17.8542 80.4635 17.6484 80.0625 17.4453C79.6667 17.237 79.3594 16.9844 79.1406 16.6875C78.9271 16.3906 78.8203 16.0052 78.8203 15.5312C78.8203 14.8073 79.112 14.2526 79.6953 13.8672C80.2839 13.4766 81.0547 13.2812 82.0078 13.2812C82.5234 13.2812 83.0052 13.3333 83.4531 13.4375C83.9062 13.5365 84.3281 13.6719 84.7188 13.8438L84.2812 14.8828C83.9271 14.7318 83.5495 14.6042 83.1484 14.5C82.7474 14.3958 82.3385 14.3438 81.9219 14.3438C81.3229 14.3438 80.862 14.4427 80.5391 14.6406C80.2214 14.8385 80.0625 15.1094 80.0625 15.4531C80.0625 15.7188 80.1354 15.9375 80.2812 16.1094C80.4323 16.2812 80.6719 16.4427 81 16.5938C81.3281 16.7448 81.7604 16.9219 82.2969 17.125C82.8333 17.3229 83.2969 17.5286 83.6875 17.7422C84.0781 17.9505 84.3776 18.2057 84.5859 18.5078C84.7995 18.8047 84.9062 19.1875 84.9062 19.6562ZM88.2891 9.84375V13.4766C88.2891 13.6849 88.2839 13.8958 88.2734 14.1094C88.263 14.3177 88.2448 14.5104 88.2188 14.6875H88.3047C88.4818 14.3854 88.7057 14.1328 88.9766 13.9297C89.2526 13.7214 89.5651 13.5651 89.9141 13.4609C90.263 13.3516 90.6328 13.2969 91.0234 13.2969C91.7109 13.2969 92.2839 13.4062 92.7422 13.625C93.2057 13.8438 93.5521 14.1823 93.7812 14.6406C94.0156 15.099 94.1328 15.6927 94.1328 16.4219V22H92.8516V16.5078C92.8516 15.7943 92.6875 15.2604 92.3594 14.9062C92.0365 14.5521 91.5391 14.375 90.8672 14.375C90.2318 14.375 89.724 14.4974 89.3438 14.7422C88.9688 14.9818 88.6979 15.3359 88.5312 15.8047C88.3698 16.2734 88.2891 16.8464 88.2891 17.5234V22H86.9922V9.84375H88.2891ZM104.188 17.7031C104.188 18.4062 104.096 19.0339 103.914 19.5859C103.732 20.138 103.469 20.6042 103.125 20.9844C102.781 21.3646 102.365 21.6562 101.875 21.8594C101.391 22.0573 100.841 22.1562 100.227 22.1562C99.6536 22.1562 99.1276 22.0573 98.6484 21.8594C98.1745 21.6562 97.763 21.3646 97.4141 20.9844C97.0703 20.6042 96.8021 20.138 96.6094 19.5859C96.4219 19.0339 96.3281 18.4062 96.3281 17.7031C96.3281 16.7656 96.487 15.9688 96.8047 15.3125C97.1224 14.651 97.5755 14.1484 98.1641 13.8047C98.7578 13.4557 99.4635 13.2812 100.281 13.2812C101.062 13.2812 101.745 13.4557 102.328 13.8047C102.917 14.1536 103.372 14.6589 103.695 15.3203C104.023 15.9766 104.188 16.7708 104.188 17.7031ZM97.6719 17.7031C97.6719 18.3906 97.763 18.987 97.9453 19.4922C98.1276 19.9974 98.4089 20.388 98.7891 20.6641C99.1693 20.9401 99.6589 21.0781 100.258 21.0781C100.852 21.0781 101.339 20.9401 101.719 20.6641C102.104 20.388 102.388 19.9974 102.57 19.4922C102.753 18.987 102.844 18.3906 102.844 17.7031C102.844 17.0208 102.753 16.4323 102.57 15.9375C102.388 15.4375 102.107 15.0521 101.727 14.7812C101.346 14.5104 100.854 14.375 100.25 14.375C99.3594 14.375 98.7057 14.6693 98.2891 15.2578C97.8776 15.8464 97.6719 16.6615 97.6719 17.7031ZM110.453 13.2812C111.521 13.2812 112.372 13.6484 113.008 14.3828C113.643 15.1172 113.961 16.2214 113.961 17.6953C113.961 18.6693 113.815 19.487 113.523 20.1484C113.232 20.8099 112.82 21.3099 112.289 21.6484C111.763 21.987 111.141 22.1562 110.422 22.1562C109.969 22.1562 109.57 22.0964 109.227 21.9766C108.883 21.8568 108.589 21.6953 108.344 21.4922C108.099 21.2891 107.896 21.0677 107.734 20.8281H107.641C107.656 21.0312 107.674 21.276 107.695 21.5625C107.721 21.849 107.734 22.099 107.734 22.3125V25.8281H106.43V13.4375H107.5L107.672 14.7031H107.734C107.901 14.4427 108.104 14.2057 108.344 13.9922C108.583 13.7734 108.875 13.6016 109.219 13.4766C109.568 13.3464 109.979 13.2812 110.453 13.2812ZM110.227 14.375C109.633 14.375 109.154 14.4896 108.789 14.7188C108.43 14.9479 108.167 15.2917 108 15.75C107.833 16.2031 107.745 16.7734 107.734 17.4609V17.7109C107.734 18.4349 107.812 19.0469 107.969 19.5469C108.13 20.0469 108.393 20.4271 108.758 20.6875C109.128 20.9479 109.622 21.0781 110.242 21.0781C110.773 21.0781 111.216 20.9349 111.57 20.6484C111.924 20.362 112.188 19.9635 112.359 19.4531C112.536 18.9375 112.625 18.3464 112.625 17.6797C112.625 16.6693 112.427 15.8672 112.031 15.2734C111.641 14.6745 111.039 14.375 110.227 14.375Z" fill="white"/>
</svg>
