<svg width="30" height="30" viewBox="0 0 30 30" fill="none" xmlns="http://www.w3.org/2000/svg">
<path d="M6.875 15.8654C7.91 15.8654 8.75 16.8346 8.75 18.0288C8.75 19.2231 7.91 20.1923 6.875 20.1923C5.84 20.1923 5 19.2231 5 18.0288C5 16.8346 5.84 15.8654 6.875 15.8654ZM30 7.21154V15.8654C30 16.6615 29.4412 17.3077 28.75 17.3077C28.0587 17.3077 27.5 16.6615 27.5 15.8654V10.0962H2.5V18.75C2.5 21.1356 4.1825 23.0769 6.25 23.0769H16.25C16.9412 23.0769 17.5 23.7231 17.5 24.5192C17.5 25.3154 16.9412 25.9615 16.25 25.9615H6.25C2.80375 25.9615 0 22.7264 0 18.75V7.21154C0 3.2351 2.80375 0 6.25 0H23.75C27.1962 0 30 3.2351 30 7.21154ZM27.5 7.21154C27.5 4.82596 25.8175 2.88462 23.75 2.88462H6.25C4.1825 2.88462 2.5 4.82596 2.5 7.21154H27.5Z" fill="#222222" fill-opacity="0.5"/>
<g clip-path="url(#clip0_150_2757)">
<path d="M26.2905 17.0701L23.158 16.0256C23.0554 15.9915 22.9446 15.9915 22.842 16.0256L19.7095 17.0701C19.2115 17.2356 18.7782 17.5537 18.4713 17.9795C18.1644 18.4052 17.9995 18.9168 18 19.4416V22.0001C18 25.7816 22.6 27.8701 22.797 27.9571C22.8609 27.9855 22.9301 28.0002 23 28.0002C23.0699 28.0002 23.1391 27.9855 23.203 27.9571C23.4 27.8701 28 25.7816 28 22.0001V19.4416C28.0005 18.9168 27.8356 18.4052 27.5287 17.9795C27.2218 17.5537 26.7885 17.2356 26.2905 17.0701ZM25.359 20.8586L23.223 22.9946C23.1356 23.0826 23.0316 23.1524 22.917 23.1998C22.8024 23.2473 22.6795 23.2715 22.5555 23.2711H22.539C22.4124 23.2692 22.2876 23.2416 22.172 23.19C22.0564 23.1385 21.9525 23.064 21.8665 22.9711L20.7135 21.7711C20.6636 21.7248 20.6236 21.6687 20.5961 21.6064C20.5686 21.5441 20.5542 21.4768 20.5536 21.4087C20.553 21.3406 20.5664 21.2731 20.5929 21.2103C20.6193 21.1476 20.6583 21.0909 20.7075 21.0437C20.7566 20.9966 20.8149 20.96 20.8787 20.9361C20.9426 20.9123 21.0106 20.9018 21.0786 20.9052C21.1466 20.9086 21.2132 20.9259 21.2744 20.956C21.3355 20.986 21.3898 21.0283 21.434 21.0801L22.556 22.2501L24.65 20.1501C24.7443 20.059 24.8706 20.0086 25.0017 20.0098C25.1328 20.0109 25.2582 20.0635 25.3509 20.1562C25.4436 20.2489 25.4962 20.3743 25.4973 20.5054C25.4985 20.6365 25.4481 20.7628 25.357 20.8571L25.359 20.8586Z" fill="#222222" fill-opacity="0.5"/>
</g>
<defs>
<clipPath id="clip0_150_2757">
<rect width="12" height="12" fill="white" transform="translate(17 16)"/>
</clipPath>
</defs>
</svg>
