<svg width="30" height="30" viewBox="0 0 30 30" fill="none" xmlns="http://www.w3.org/2000/svg">
<g clip-path="url(#clip0_150_2765)">
<path d="M30 15C30 23.2712 23.2712 30 15 30C9.93125 30 5.25625 27.4262 2.505 23.2875L2.5 25C2.5 25.6912 1.94 26.25 1.25 26.25C0.56 26.25 0 25.6912 0 25V21.2613C0 19.8775 1.12625 18.75 2.51 18.75H6.25C6.94 18.75 7.5 19.3088 7.5 20C7.5 20.6912 6.94 21.25 6.25 21.25H4.20375C6.42375 25.075 10.5188 27.5 15 27.5C21.8925 27.5 27.5 21.8925 27.5 15C27.5 14.3088 28.0588 13.75 28.75 13.75C29.4412 13.75 30 14.3088 30 15ZM28.75 3.75C28.0588 3.75 27.5 4.30875 27.5 5L27.495 6.69375C24.7588 2.55 20.1337 0 15 0C6.72875 0 0 6.72875 0 15C0 15.6912 0.56 16.25 1.25 16.25C1.94 16.25 2.5 15.6912 2.5 15C2.5 8.1075 8.1075 2.5 15 2.5C19.55 2.5 23.625 4.90125 25.8325 8.75H23.75C23.0588 8.75 22.5 9.30875 22.5 10C22.5 10.6912 23.0588 11.25 23.75 11.25H27.5C28.8813 11.25 30 10.1313 30 8.75V5C30 4.30875 29.4412 3.75 28.75 3.75ZM12.5 21.25C10.4325 21.25 8.75 19.5675 8.75 17.5V12.5C8.75 10.4325 10.4325 8.75 12.5 8.75H17.5C19.5675 8.75 21.25 10.4325 21.25 12.5V17.5C21.25 19.5675 19.5675 21.25 17.5 21.25H12.5ZM12.5 18.75H17.5C18.19 18.75 18.75 18.19 18.75 17.5V12.5C18.75 11.81 18.19 11.25 17.5 11.25H12.5C11.8112 11.25 11.25 11.81 11.25 12.5V17.5C11.25 18.19 11.8112 18.75 12.5 18.75ZM14.375 15H15.625C16.3162 15 16.875 14.4412 16.875 13.75C16.875 13.0588 16.3162 12.5 15.625 12.5H14.375C13.685 12.5 13.125 13.0588 13.125 13.75C13.125 14.4412 13.685 15 14.375 15Z" fill="#222222" fill-opacity="0.5"/>
</g>
<defs>
<clipPath id="clip0_150_2765">
<rect width="30" height="30" fill="white"/>
</clipPath>
</defs>
</svg>
