<svg width="30" height="30" viewBox="0 0 30 30" fill="none" xmlns="http://www.w3.org/2000/svg">
<path d="M23.75 6.25H21.1538C20.7338 3.87125 18.9625 1.9075 16.5612 1.29C15.9 1.11875 15.2125 1.52125 15.0387 2.18875C14.8663 2.8575 15.27 3.53875 15.9388 3.71C17.5938 4.13625 18.75 5.63 18.75 7.3425V21.25H5C3.62125 21.25 2.5 20.1287 2.5 18.75V13.75H5.625C6.31625 13.75 6.875 13.19 6.875 12.5C6.875 11.81 6.31625 11.25 5.625 11.25H2.5C1.12125 11.25 0 12.3713 0 13.75V18.75C0 21.1 1.63 23.0762 3.81875 23.6087C3.77375 23.86 3.75 24.1162 3.75 24.375C3.75 26.7875 5.7125 28.75 8.125 28.75C10.5375 28.75 12.5 26.7875 12.5 24.375C12.5 24.1637 12.4838 23.9562 12.4538 23.75H17.5462C17.5162 23.9562 17.5 24.1637 17.5 24.375C17.5 26.7875 19.4625 28.75 21.875 28.75C24.2875 28.75 26.25 26.7875 26.25 24.375C26.25 24.1162 26.2262 23.86 26.1812 23.6087C28.37 23.0762 30 21.1 30 18.75V12.5C30 9.05375 27.1963 6.25 23.75 6.25ZM27.5 12.5V13.75H21.25V8.75H23.75C25.8175 8.75 27.5 10.4325 27.5 12.5ZM10 24.375C10 25.4088 9.15875 26.25 8.125 26.25C7.09125 26.25 6.25 25.4088 6.25 24.375C6.25 24.1388 6.29625 23.93 6.36375 23.75H9.8875C9.955 23.93 10.0013 24.1388 10.0013 24.375H10ZM21.875 26.25C20.8412 26.25 20 25.4088 20 24.375C20 24.1388 20.0462 23.93 20.1138 23.75H23.6375C23.705 23.93 23.7512 24.1388 23.7512 24.375C23.7512 25.4088 22.9088 26.25 21.875 26.25ZM25 21.25H21.25V16.25H27.5V18.75C27.5 20.1287 26.3787 21.25 25 21.25ZM0 2.5C0 1.81 0.55875 1.25 1.25 1.25H11.4425C12.1337 1.25 12.6925 1.81 12.6925 2.5C12.6925 3.19 12.1337 3.75 11.4425 3.75H1.25C0.55875 3.75 0 3.19 0 2.5ZM0 7.5C0 6.81 0.55875 6.25 1.25 6.25H8.9425C9.63375 6.25 10.1925 6.81 10.1925 7.5C10.1925 8.19 9.63375 8.75 8.9425 8.75H1.25C0.55875 8.75 0 8.19 0 7.5Z" fill="#222222" fill-opacity="0.5"/>
</svg>
