<svg width="30" height="30" viewBox="0 0 30 30" fill="none" xmlns="http://www.w3.org/2000/svg">
<path d="M26.2501 26.8749V29.9999H23.7501V26.8749C23.7501 25.1511 22.3488 23.7499 20.6251 23.7499H9.37508C7.65258 23.7499 6.25008 25.1511 6.25008 26.8749V29.9999H3.75008V26.8749C3.75008 23.7736 6.27383 21.2499 9.37508 21.2499H20.6251C23.7263 21.2499 26.2501 23.7736 26.2501 26.8749ZM16.0301 7.61864C17.5988 7.97989 18.8776 9.24864 19.2488 10.8149C19.5001 11.8736 19.3626 12.8886 18.9513 13.7499H20.5838C21.2101 13.7499 21.7576 13.2899 21.8301 12.6674C21.9151 11.9336 21.8838 11.1649 21.7163 10.3786C21.1613 7.77989 19.0526 5.68364 16.4501 5.14864C12.0288 4.23989 8.12633 7.61114 8.12633 11.8749C8.12633 13.7111 8.85008 15.3811 10.0263 16.6149C10.0763 15.5549 10.4588 14.5811 11.0713 13.7949C10.7863 13.2149 10.6263 12.5624 10.6263 11.8736C10.6263 9.12489 13.1738 6.95989 16.0313 7.61739L16.0301 7.61864ZM8.58883 5.03489C10.5001 3.24364 13.0026 2.35864 15.6263 2.52114C20.5313 2.83864 24.3751 7.10739 24.3751 12.2386C24.3751 14.4511 22.5763 16.2499 20.3638 16.2499H17.3676C17.0638 15.2111 16.1051 14.4511 14.9676 14.4511C13.5863 14.4511 12.4676 15.5699 12.4676 16.9511C12.4676 18.3324 13.5863 19.4511 14.9676 19.4511C15.6413 19.4511 16.2538 19.1836 16.7026 18.7499H20.3626C23.9526 18.7499 26.8738 15.8286 26.8738 12.2386C26.8751 5.79239 22.0051 0.427387 15.7876 0.0261371C12.4576 -0.190113 9.29883 0.941137 6.88008 3.21114C4.64633 5.30489 3.30383 8.20614 3.14258 11.2511H5.64633C5.80008 8.87239 6.83133 6.68364 8.59008 5.03489H8.58883Z" fill="#222222" fill-opacity="0.5"/>
</svg>
